<?xml version="1.0" encoding="UTF-8" standalone="no"?>
<svg width="1148px" height="790px" viewBox="0 0 1148 790" version="1.1" xmlns="http://www.w3.org/2000/svg" xmlns:xlink="http://www.w3.org/1999/xlink" xmlns:sketch="http://www.bohemiancoding.com/sketch/ns">
    <!-- Generator: Sketch 3.4 (15575) - http://www.bohemiancoding.com/sketch -->
    <title>Group</title>
    <desc>Created with Sketch.</desc>
    <defs></defs>
    <g id="Welcome" stroke="none" stroke-width="1" fill="none" fill-rule="evenodd" sketch:type="MSPage">
        <g id="macbook-copy" sketch:type="MSArtboardGroup" transform="translate(-682.000000, -93.000000)">
            <g id="Group" sketch:type="MSLayerGroup" transform="translate(683.000000, 94.000000)">
                <circle id="Oval-12" stroke="#444444" stroke-dasharray="2,4" sketch:type="MSShapeGroup" cx="526" cy="394" r="394"></circle>
                <circle id="Oval-8" stroke="#FF7600" fill="#FFFFFF" sketch:type="MSShapeGroup" cx="127.5" cy="382.5" r="127.5"></circle>
                <circle id="Oval-8-Copy" stroke="#004359" fill="#FFFFFF" sketch:type="MSShapeGroup" cx="525.5" cy="382.5" r="127.5"></circle>
                <circle id="Oval-8-Copy-2" stroke="#8DA519" fill="#FFFFFF" sketch:type="MSShapeGroup" cx="896.5" cy="229.5" r="127.5"></circle>
                <circle id="Oval-8-Copy-3" stroke="#158B70" fill="#FFFFFF" sketch:type="MSShapeGroup" cx="896.5" cy="588.5" r="127.5"></circle>
                <text id="integrations" sketch:type="MSTextLayer" font-family="Roboto" font-size="28" font-weight="260" sketch:alignment="middle" line-spacing="32" fill="#444444">
                    <tspan x="53" y="393">integrations</tspan>
                </text>
                <text id="explorer" sketch:type="MSTextLayer" font-family="Roboto" font-size="28" font-weight="260" sketch:alignment="middle" line-spacing="32" fill="#444444">
                    <tspan x="476" y="393">explorer</tspan>
                </text>
                <text id="developer" sketch:type="MSTextLayer" font-family="Roboto" font-size="28" font-weight="260" sketch:alignment="middle" line-spacing="32" fill="#444444">
                    <tspan x="838" y="240">developer</tspan>
                </text>
                <text id="boards" sketch:type="MSTextLayer" font-family="Roboto" font-size="28" font-weight="260" sketch:alignment="middle" line-spacing="32" fill="#444444">
                    <tspan x="854" y="606">boards</tspan>
                </text>
                <text id="sharing" sketch:type="MSTextLayer" font-family="Roboto" font-size="28" font-weight="260" sketch:alignment="middle" line-spacing="32" fill="#999999">
                    <tspan x="1054" y="183">sharing</tspan>
                </text>
                <text id="sharing-copy" sketch:type="MSTextLayer" font-family="Roboto" font-size="28" font-weight="260" sketch:alignment="middle" line-spacing="32" fill="#999999">
                    <tspan x="1054" y="666">sharing</tspan>
                </text>
                <g id="Arrow-11" transform="translate(284.000000, 377.000000)" sketch:type="MSShapeGroup">
                    <path d="M0,9 L91,9" id="Stroke-11" stroke="#666666" stroke-width="2"></path>
                    <path d="M83.4767717,18 L82,16.3889466 L89.8201772,9.00165067 L82,1.61215382 L83.4767717,1.13686838e-13 L93,9.00165067 L83.4767717,18" id="Arrow-head-11" fill="#666666"></path>
                </g>
                <g id="Arrow-11-Copy-3" transform="translate(1054.000000, 221.000000)" sketch:type="MSShapeGroup">
                    <path d="M0,9 L91,9" id="Stroke-11" stroke="#B8B8B8" stroke-width="2"></path>
                    <path d="M83.4767717,18 L82,16.3889466 L89.8201772,9.00165067 L82,1.61215382 L83.4767717,0 L93,9.00165067 L83.4767717,18" id="Arrow-head-11" fill="#B8B8B8"></path>
                </g>
                <g id="Arrow-11-Copy-5" transform="translate(1066.500000, 86.000000) rotate(-30.000000) translate(-1066.500000, -86.000000) translate(1020.000000, 77.000000)" sketch:type="MSShapeGroup">
                    <path d="M0,9 L91,9" id="Stroke-11" stroke="#B8B8B8" stroke-width="2"></path>
                    <path d="M83.4767717,18 L82,16.3889466 L89.8201772,9.00165067 L82,1.61215382 L83.4767717,0 L93,9.00165067 L83.4767717,18" id="Arrow-head-11" fill="#B8B8B8"></path>
                </g>
                <g id="Arrow-11-Copy-6" transform="translate(1061.500000, 732.000000) rotate(-315.000000) translate(-1061.500000, -732.000000) translate(1015.000000, 723.000000)" sketch:type="MSShapeGroup">
                    <path d="M0,9 L91,9" id="Stroke-11" stroke="#B8B8B8" stroke-width="2"></path>
                    <path d="M83.4767717,18 L82,16.3889466 L89.8201772,9.00165067 L82,1.61215382 L83.4767717,0 L93,9.00165067 L83.4767717,18" id="Arrow-head-11" fill="#B8B8B8"></path>
                </g>
                <g id="Arrow-11-Copy-4" transform="translate(1054.000000, 590.000000)" sketch:type="MSShapeGroup">
                    <path d="M0,9 L91,9" id="Stroke-11" stroke="#B8B8B8" stroke-width="2"></path>
                    <path d="M83.4767717,18 L82,16.3889466 L89.8201772,9.00165067 L82,1.61215382 L83.4767717,0 L93,9.00165067 L83.4767717,18" id="Arrow-head-11" fill="#B8B8B8"></path>
                </g>
                <g id="arrow_diagram" transform="translate(699.770181, 282.044229) rotate(-30.000000) translate(-699.770181, -282.044229) translate(653.270181, 273.044229)" sketch:type="MSShapeGroup">
                    <path d="M0,9 L91,9" id="Stroke-11" stroke="#666666" stroke-width="2"></path>
                    <path d="M83.4767717,18 L82,16.3889466 L89.8201772,9.00165067 L82,1.61215382 L83.4767717,1.13686838e-13 L93,9.00165067 L83.4767717,18" id="Arrow-head-11" fill="#666666"></path>
                </g>
                <g id="Arrow-11-Copy-2" transform="translate(699.770181, 518.044229) rotate(-330.000000) translate(-699.770181, -518.044229) translate(653.270181, 509.044229)" sketch:type="MSShapeGroup">
                    <path d="M0,9 L91,9" id="Stroke-11" stroke="#666666" stroke-width="2"></path>
                    <path d="M83.4767717,18 L82,16.3889466 L89.8201772,9.00165067 L82,1.61215382 L83.4767717,1.13686838e-13 L93,9.00165067 L83.4767717,18" id="Arrow-head-11" fill="#666666"></path>
                </g>
            </g>
        </g>
    </g>
</svg>